<svg width="0" height="0" class="hidden">
  <symbol fill="none" xmlns="http://www.w3.org/2000/svg" viewBox="0 0 23 30" id="logOut_1">
    <path d="M20.625 28.125H1.875V1.875h18.75V3.75H22.5V.938A.937.937 0 0021.563 0H.938A.937.937 0 000 .938v28.125c0 .518.42.937.938.937h20.625c.518 0 .937-.42.937-.938V26.25h-1.875v1.875z" fill="#000"></path>
  </symbol>
  <symbol fill="none" xmlns="http://www.w3.org/2000/svg" viewBox="0 0 30 28" id="paintedHeart">
    <path d="M15 27.8l-2.1-2.1C5.1 18.8 0 14.15 0 8.45 0 3.8 3.6.2 8.25.2c2.55 0 5.1 1.2 6.75 3.15C16.65 1.4 19.2.2 21.75.2 26.4.2 30 3.8 30 8.45c0 5.7-5.1 10.35-12.9 17.25L15 27.8z" fill="#ff6b09"></path>
  </symbol>
  <symbol fill="none" xmlns="http://www.w3.org/2000/svg" viewBox="0 0 18 18" id="close">
    <path d="M17.75 2.013L15.988.25 9 7.237 2.013.25.25 2.013 7.238 9 .25 15.988l1.763 1.762L9 10.762l6.988 6.988 1.762-1.762L10.763 9l6.987-6.987z" fill="#000"></path>
  </symbol>
  <symbol fill="none" xmlns="http://www.w3.org/2000/svg" viewBox="0 0 30 20" id="arrow">
    <path d="M29.817 9.558L20.442.183a.625.625 0 10-.884.884l8.308 8.308H.626a.625.625 0 100 1.25h27.24l-8.308 8.308a.625.625 0 10.884.884l9.375-9.375a.625.625 0 000-.884z" fill="#000"></path>
  </symbol>
  <symbol fill="none" xmlns="http://www.w3.org/2000/svg" viewBox="0 0 17 14" id="logOut_2">
    <path d="M10.712.712L9.387 2.038l4.024 4.024H.125v1.876h13.286l-4.024 4.024 1.325 1.326L17 7 10.712.712z" fill="#000"></path>
  </symbol>
  <symbol fill="none" xmlns="http://www.w3.org/2000/svg" viewBox="0 0 24 16" id="burger">
    <path d="M.75 15.5h22.5V13H.75v2.5zm0-6.25h22.5v-2.5H.75v2.5zM.75.5V3h22.5V.5H.75z" fill="#000"></path>
  </symbol>
  <symbol fill="none" xmlns="http://www.w3.org/2000/svg" viewBox="0 0 30 28" id="emptyHeart">
    <path d="M15 27.331a1.76 1.76 0 01-1.16-.436 347.902 347.902 0 00-3.411-2.934l-.005-.004c-3.023-2.576-5.633-4.8-7.449-6.991C.945 14.516 0 12.194 0 9.656c0-2.465.845-4.739 2.38-6.403C3.933 1.568 6.064.64 8.38.64c1.732 0 3.318.547 4.714 1.627A9.644 9.644 0 0115 4.258a9.645 9.645 0 011.906-1.99C18.302 1.188 19.888.64 21.619.64c2.317 0 4.448.927 6.001 2.612C29.155 4.917 30 7.19 30 9.657c0 2.537-.945 4.86-2.975 7.308-1.816 2.192-4.426 4.416-7.448 6.991a337.24 337.24 0 00-3.418 2.94A1.76 1.76 0 0115 27.33zM8.38 2.398c-1.82 0-3.492.726-4.708 2.046-1.235 1.339-1.915 3.19-1.915 5.213 0 2.133.793 4.042 2.571 6.187 1.72 2.074 4.275 4.253 7.235 6.775l.006.005c1.035.882 2.208 1.881 3.428 2.949a409.452 409.452 0 013.44-2.954c2.96-2.523 5.516-4.7 7.235-6.775 1.778-2.145 2.57-4.054 2.57-6.187 0-2.023-.68-3.874-1.914-5.213-1.216-1.32-2.888-2.046-4.709-2.046-1.333 0-2.557.424-3.638 1.26-.964.745-1.635 1.687-2.028 2.346a1.1 1.1 0 01-.953.542 1.1 1.1 0 01-.953-.542c-.393-.659-1.064-1.601-2.028-2.346-1.08-.836-2.305-1.26-3.638-1.26z" fill="#000"></path>
  </symbol>
</svg>